<svg width="98" height="103" viewBox="0 0 98 103" fill="none" xmlns="http://www.w3.org/2000/svg">
<mask id="path-1-inside-1_638_1537" fill="white">
<path fill-rule="evenodd" clip-rule="evenodd" d="M67.4766 0C84.045 0.000121948 97.4766 13.4315 97.4766 30V102.352H72.2949V82.4502C72.2947 79.5345 69.9314 77.1711 67.0156 77.1709C64.0999 77.1711 61.7356 79.5345 61.7354 82.4502V102.352H36.5537V82.8564C36.5537 82.5626 36.5313 82.273 36.4883 81.9912C36.4564 81.7823 36.4114 81.5767 36.3574 81.376C36.1924 80.7631 35.9292 80.1902 35.583 79.6777C35.2654 79.2076 34.8787 78.7883 34.4385 78.4326C34.3121 78.3305 34.1818 78.2327 34.0469 78.1416C33.6122 77.848 33.1339 77.6145 32.625 77.4492C32.5834 77.4357 32.5411 77.4217 32.499 77.4092C31.9826 77.2548 31.4348 77.1709 30.8682 77.1709C28.2191 77.1714 25.9914 78.9833 25.3604 81.4355C25.2437 81.8892 25.1817 82.3664 25.1816 82.8564V102.352H0V30C0 13.4315 13.4315 2.37243e-06 30 0H67.4766Z"/>
</mask>
<path fill-rule="evenodd" clip-rule="evenodd" d="M67.4766 0C84.045 0.000121948 97.4766 13.4315 97.4766 30V102.352H72.2949V82.4502C72.2947 79.5345 69.9314 77.1711 67.0156 77.1709C64.0999 77.1711 61.7356 79.5345 61.7354 82.4502V102.352H36.5537V82.8564C36.5537 82.5626 36.5313 82.273 36.4883 81.9912C36.4564 81.7823 36.4114 81.5767 36.3574 81.376C36.1924 80.7631 35.9292 80.1902 35.583 79.6777C35.2654 79.2076 34.8787 78.7883 34.4385 78.4326C34.3121 78.3305 34.1818 78.2327 34.0469 78.1416C33.6122 77.848 33.1339 77.6145 32.625 77.4492C32.5834 77.4357 32.5411 77.4217 32.499 77.4092C31.9826 77.2548 31.4348 77.1709 30.8682 77.1709C28.2191 77.1714 25.9914 78.9833 25.3604 81.4355C25.2437 81.8892 25.1817 82.3664 25.1816 82.8564V102.352H0V30C0 13.4315 13.4315 2.37243e-06 30 0H67.4766Z" fill="#E03D99"/>
<path d="M67.4766 0L67.4766 -4H67.4766V0ZM97.4766 102.352V106.352H101.477V102.352H97.4766ZM72.2949 102.352H68.2949V106.352H72.2949V102.352ZM72.2949 82.4502H76.2949V82.4499L72.2949 82.4502ZM67.0156 77.1709L67.0159 73.1709H67.0153L67.0156 77.1709ZM61.7354 82.4502L57.7354 82.4499V82.4502H61.7354ZM61.7354 102.352V106.352H65.7354V102.352H61.7354ZM36.5537 102.352H32.5537V106.352H36.5537V102.352ZM36.5537 82.8564H40.5537V82.8557L36.5537 82.8564ZM36.4883 81.9912L40.4425 81.3875L40.4424 81.3872L36.4883 81.9912ZM36.3574 81.376L40.2201 80.337L40.2199 80.3362L36.3574 81.376ZM35.583 79.6777L32.2685 81.9169L32.2686 81.917L35.583 79.6777ZM34.4385 78.4326L36.9525 75.3214L36.9521 75.3211L34.4385 78.4326ZM34.0469 78.1416L31.808 81.4563L31.8081 81.4564L34.0469 78.1416ZM32.625 77.4492L33.8604 73.6448L33.8602 73.6447L32.625 77.4492ZM32.499 77.4092L33.6445 73.5767L33.6443 73.5767L32.499 77.4092ZM30.8682 77.1709L30.8684 73.1709H30.8673L30.8682 77.1709ZM25.3604 81.4355L21.4866 80.4387L21.4864 80.4393L25.3604 81.4355ZM25.1816 82.8564L21.1816 82.8557V82.8564H25.1816ZM25.1816 102.352V106.352H29.1816V102.352H25.1816ZM0 102.352H-4V106.352H0V102.352ZM30 0V-4V-4V0ZM67.4766 0L67.4765 4C81.8359 4.00011 93.4766 15.6407 93.4766 30H97.4766H101.477C101.477 11.2224 86.2541 -3.99986 67.4766 -4L67.4766 0ZM97.4766 30H93.4766V102.352H97.4766H101.477V30H97.4766ZM97.4766 102.352V98.3516H72.2949V102.352V106.352H97.4766V102.352ZM72.2949 102.352H76.2949V82.4502H72.2949H68.2949V102.352H72.2949ZM72.2949 82.4502L76.2949 82.4499C76.2945 77.3254 72.1407 73.1712 67.0159 73.1709L67.0156 77.1709L67.0154 81.1709C67.7221 81.1709 68.2949 81.7436 68.2949 82.4505L72.2949 82.4502ZM67.0156 77.1709L67.0153 73.1709C61.8916 73.1713 57.7358 77.3243 57.7354 82.4499L61.7354 82.4502L65.7354 82.4505C65.7354 81.7446 66.3082 81.171 67.0159 81.1709L67.0156 77.1709ZM61.7354 82.4502H57.7354V102.352H61.7354H65.7354V82.4502H61.7354ZM61.7354 102.352V98.3516H36.5537V102.352V106.352H61.7354V102.352ZM36.5537 102.352H40.5537V82.8564H36.5537H32.5537V102.352H36.5537ZM36.5537 82.8564L40.5537 82.8557C40.5536 82.3599 40.5159 81.8687 40.4425 81.3875L36.4883 81.9912L32.5341 82.5949C32.5467 82.6773 32.5537 82.7653 32.5537 82.8572L36.5537 82.8564ZM36.4883 81.9912L40.4424 81.3872C40.3851 81.0122 40.3071 80.6605 40.2201 80.337L36.3574 81.376L32.4947 82.4149C32.5157 82.493 32.5276 82.5525 32.5341 82.5952L36.4883 81.9912ZM36.3574 81.376L40.2199 80.3362C39.9399 79.2959 39.4915 78.3178 38.8975 77.4385L35.583 79.6777L32.2686 81.917C32.367 82.0627 32.445 82.2302 32.4949 82.4158L36.3574 81.376ZM35.583 79.6777L38.8975 77.4386C38.3545 76.6347 37.6966 75.9227 36.9525 75.3214L34.4385 78.4326L31.9244 81.5438C32.0607 81.6539 32.1763 81.7805 32.2685 81.9169L35.583 79.6777ZM34.4385 78.4326L36.9521 75.3211C36.7523 75.1597 36.53 74.9919 36.2856 74.8268L34.0469 78.1416L31.8081 81.4564C31.8336 81.4736 31.8719 81.5014 31.9248 81.5441L34.4385 78.4326ZM34.0469 78.1416L36.2858 74.8269C35.5385 74.3222 34.722 73.9246 33.8604 73.6448L32.625 77.4492L31.3896 81.2537C31.5458 81.3044 31.6859 81.3739 31.808 81.4563L34.0469 78.1416ZM32.625 77.4492L33.8602 73.6447C33.8459 73.6401 33.744 73.6064 33.6445 73.5767L32.499 77.4092L31.3536 81.2417C31.3392 81.2374 31.3325 81.2352 31.3401 81.2376C31.3435 81.2387 31.3485 81.2403 31.3572 81.2431C31.3616 81.2445 31.3659 81.2459 31.3716 81.2478C31.3769 81.2495 31.3832 81.2516 31.3898 81.2537L32.625 77.4492ZM32.499 77.4092L33.6443 73.5767C32.7646 73.3138 31.8314 73.171 30.8684 73.1709L30.8682 77.1709L30.8679 81.1709C31.0382 81.1709 31.2005 81.1959 31.3537 81.2417L32.499 77.4092ZM30.8682 77.1709L30.8673 73.1709C26.3511 73.1718 22.5617 76.2604 21.4866 80.4387L25.3604 81.4355L29.2342 82.4324C29.421 81.7062 30.0871 81.1711 30.869 81.1709L30.8682 77.1709ZM25.3604 81.4355L21.4864 80.4393C21.2863 81.2173 21.1818 82.0289 21.1816 82.8557L25.1816 82.8564L29.1816 82.8571C29.1817 82.7039 29.201 82.5611 29.2343 82.4318L25.3604 81.4355ZM25.1816 82.8564H21.1816V102.352H25.1816H29.1816V82.8564H25.1816ZM25.1816 102.352V98.3516H0V102.352V106.352H25.1816V102.352ZM0 102.352H4V30H0H-4V102.352H0ZM0 30H4C4 15.6406 15.6406 4 30 4V0V-4C11.2223 -4 -4 11.2223 -4 30H0ZM30 0V4H67.4766V0V-4H30V0Z" fill="#94155D" mask="url(#path-1-inside-1_638_1537)"/>
<circle cx="30.53" cy="33.7819" r="11.8483" fill="#EDE8E8"/>
<circle cx="66.8327" cy="33.7819" r="11.8483" fill="#EDE8E8"/>
<circle cx="27.3215" cy="38.1399" r="5.79811" fill="#231F20"/>
<ellipse cx="70.1645" cy="30.5657" rx="6.0502" ry="5.79811" fill="#231F20"/>
<rect x="36.6367" y="53.1641" width="24.2008" height="8.57112" rx="4.28556" fill="#231F20"/>
</svg>
